<svg version="1.2" xmlns="http://www.w3.org/2000/svg" viewBox="0 0 926 570" width="926" height="570">
	<title>undraw_detailed-analysis_w5a8</title>
	<style>
		.s0 { fill: #f0f0f0 } 
		.s1 { fill: #f2f2f2 } 
		.s2 { fill: #3f3d56 } 
		.s3 { fill: #9e616a } 
		.s4 { fill: #2f2e41 } 
		.s5 { fill: #e4e4e4 } 
		.s6 { fill: #ff671f } 
	</style>
	<path fill-rule="evenodd" class="s0" d="m738.5 540h34v30h-34z"/>
	<path class="s1" d="m925.5 252c0 22.5-3 44.9-9 66.6-5.9 21.8-14.7 42.6-26.2 62-11.5 19.3-25.5 37.1-41.7 52.7-16.2 15.7-34.4 29.1-54.2 39.9q-3.4 1.8-6.8 3.6-3.2 1.6-6.4 3.1-3.3 1.5-6.5 3-3.3 1.4-6.6 2.7-3.3 1.4-6.7 2.6-5.3 2-10.8 3.8-0.5 0.2-1 0.3c-17.8 5.6-36.1 9.3-54.6 10.9-18.6 1.6-37.2 1.1-55.7-1.4-18.4-2.5-36.5-7.1-53.9-13.6-17.5-6.5-34.1-15-49.7-25.2q-6.3-4.1-12.3-8.6-3.4-2.5-6.7-5.1-9.4-7.5-18-15.8c-12.2-11.7-23.2-24.6-32.8-38.5-9.6-14-17.8-28.8-24.4-44.4-6.6-15.5-11.6-31.7-15-48.3-3.3-16.5-5-33.4-5-50.3 0-139.2 112.8-252 252-252 139.2 0 252 112.8 252 252z"/>
	<path class="s2" d="m733.7 369.6l-5.7 21.5 21.6 101.2c-14.4 4.5-29.1 7.8-44 9.7-15 1.9-30 2.4-45.1 1.7-15-0.8-29.9-2.9-44.6-6.3-14.6-3.5-28.9-8.2-42.7-14.2l16.8-70.6 0.6-38.3 1.8-126.3 0.5-0.2q0 0 0 0 0 0 0 0 0 0 0 0 0 0 0 0l42.9-22.1 74.1-1.8 55.2 26.9-0.4 1.5z"/>
	<path class="s3" d="m763.9 554.1c-1.7-2-2.9-4.4-3.6-6.9-0.7-2.6-0.8-5.2-0.3-7.8 0.4-2.6 1.5-5.1 3-7.3 1.5-2.1 3.5-3.9 5.8-5.3l-12.1-63.1 30.9 12.9 6.6 57.9c2 4 2.4 8.6 1.2 12.9-1.1 4.3-3.9 8-7.6 10.4-3.7 2.4-8.2 3.4-12.6 2.7-4.4-0.7-8.4-2.9-11.3-6.4z"/>
	<path class="s2" d="m754 252.7l7.9-2.5c0 0 25 16.1 22.7 55 0 0 0.9 20.1 0 33.5-1 15.4 12.8 168.2 12.8 168.2h-44.7l-19.2-138.4z"/>
	<path class="s3" d="m728 154.8c0 20.8-12.5 39.5-31.6 47.4-19.2 8-41.3 3.6-56-11.1-14.6-14.7-19-36.7-11.1-55.9 8-19.2 26.7-31.7 47.4-31.7 6.7 0 13.4 1.3 19.6 3.9 6.2 2.5 11.9 6.3 16.7 11 4.7 4.8 8.5 10.4 11.1 16.6 2.6 6.2 3.9 12.9 3.9 19.6q0 0.1 0 0.2z"/>
	<path class="s4" d="m625.6 85.9c6-12.9 17.6-10.4 27.8-6 12.9-2.8 25.1-11.4 39-6.3 13.7 19.9 59.6 14 49.8 46.4 0 7.7 14.6 3.2 12.1 15.9 7.7 24.5-28 70.8-48.4 61 5-9.3 16.6-30.3-1-32.4-37.7 35.1-3.9-66.9-51.3-37.2-15.7 14.3-37.2-27-28-41.4z"/>
	<path class="s5" d="m704.1 497.5l-81.9-16.2 21-106.1q43.5 16.5 81.9 16.3c-22.4 32.8-32.6 68.1-21 106z"/>
	<path class="s6" d="m692.2 503.7l-81.9-16.2c-6.7-48-0.6-84.2 21-106q43.5 16.4 81.9 16.2-5.1 12.6-8.9 25.7-3.9 13-6.6 26.3-2.6 13.4-4 26.9-1.4 13.5-1.5 27.1z"/>
	<path class="s3" d="m637.9 474.2c-0.3-2.6-1.2-5.1-2.6-7.4-1.4-2.2-3.3-4.1-5.5-5.6-2.2-1.4-4.7-2.3-7.3-2.7-2.7-0.4-5.3-0.1-7.9 0.6l-38-51.7-11.6 31.3 37.9 44.3c1.6 4.2 4.7 7.6 8.6 9.7 4 2 8.5 2.6 12.9 1.5 4.3-1.1 8-3.8 10.5-7.4 2.5-3.7 3.6-8.2 3-12.6z"/>
	<path class="s2" d="m603.8 250.8l-6.9-4.7c0 0-41 3.8-49.4 41.9 0 0-6.2 22.9-9 36-1.5 6.8-20.9 72-20.9 72l65.9 72 18-27-18-45z"/>
	<path fill-rule="evenodd" class="s6" d="m0 126.5h34v30h-34z"/>
	<path fill-rule="evenodd" class="s6" d="m73 246.5h34v30h-34z"/>
	<path fill-rule="evenodd" class="s6" d="m126 451.5h34v30h-34z"/>
	<path class="s5" d="m126.2 57.6c-1 0-1.9 0.4-2.6 1.2-0.8 0.7-1.2 1.6-1.2 2.6 0 1.1 0.4 2 1.2 2.7 0.7 0.7 1.6 1.1 2.6 1.1h277.5c1 0 2-0.4 2.7-1.1 0.7-0.7 1.1-1.6 1.1-2.7 0-1-0.4-1.9-1.1-2.6-0.7-0.7-1.7-1.1-2.7-1.2z"/>
	<path class="s5" d="m126.2 80.4c-1 0-1.9 0.4-2.6 1.2-0.8 0.7-1.2 1.6-1.2 2.6 0 1.1 0.4 2 1.1 2.7 0.8 0.7 1.7 1.1 2.7 1.1h175.4c1 0 2-0.4 2.7-1.1 0.7-0.7 1.1-1.6 1.1-2.7 0-1-0.4-1.9-1.1-2.6-0.7-0.8-1.7-1.2-2.7-1.2z"/>
	<path class="s5" d="m90.2 330.6c-1 0-1.9 0.4-2.6 1.2-0.8 0.7-1.2 1.6-1.2 2.6 0 1.1 0.4 2 1.2 2.7 0.7 0.7 1.6 1.1 2.6 1.1h277.5c1 0 2-0.4 2.7-1.1 0.7-0.7 1.1-1.6 1.1-2.7 0-1-0.4-1.9-1.1-2.6-0.7-0.7-1.7-1.1-2.7-1.2z"/>
	<path class="s5" d="m90.2 353.4c-1 0-1.9 0.4-2.6 1.2-0.8 0.7-1.2 1.6-1.2 2.6 0 1.1 0.4 2 1.1 2.7 0.8 0.7 1.7 1.1 2.7 1.1h175.4c1 0 2-0.4 2.7-1.1 0.7-0.7 1.1-1.6 1.1-2.7 0-1-0.4-1.9-1.1-2.6-0.7-0.8-1.7-1.2-2.7-1.2z"/>
	<path class="s5" d="m248.2 525.6c-1 0-1.9 0.4-2.6 1.2-0.8 0.7-1.2 1.6-1.2 2.6 0 1.1 0.4 2 1.2 2.7 0.7 0.7 1.6 1.1 2.6 1.1h277.5c1 0 2-0.4 2.7-1.1 0.7-0.7 1.1-1.6 1.1-2.7 0-1-0.4-1.9-1.1-2.6-0.7-0.7-1.7-1.1-2.7-1.2z"/>
	<path class="s5" d="m248.2 548.4c-1 0-1.9 0.4-2.6 1.2-0.8 0.7-1.2 1.6-1.2 2.6 0 1.1 0.4 2 1.1 2.7 0.8 0.7 1.7 1.1 2.7 1.1h175.4c1 0 2-0.4 2.7-1.1 0.7-0.7 1.1-1.6 1.1-2.7 0-1-0.4-1.9-1.1-2.6-0.7-0.8-1.7-1.2-2.7-1.2z"/>
	<path class="s2" d="m16 141.7q6.1-1.4 11.8-3.9 5.7-2.5 10.9-6.1 5.1-3.7 9.4-8.2 4.2-4.5 7.6-9.9 0.9-1.5 1.7-3 0.9-1.6 1.6-3.2 0.8-1.6 1.5-3.2 0.6-1.7 1.2-3.4c0.1-0.4 0-0.8-0.1-1.1-0.2-0.3-0.5-0.6-0.9-0.7-0.4-0.2-0.8-0.1-1.1 0-0.4 0.2-0.6 0.5-0.8 0.8q-1.9 5.7-4.9 10.8-3 5.2-6.9 9.6-4 4.5-8.8 8.1-4.7 3.5-10.1 6.1-1.5 0.7-3.1 1.4-1.5 0.6-3.1 1.1-1.6 0.6-3.2 1-1.6 0.5-3.3 0.8c-1.9 0.4-1.3 3.4 0.6 3z"/>
	<path class="s2" d="m45.2 106.6q8.1-4.6 16.2-9.2c0.3-0.1 1-0.6 1.3-0.6-0.3 0-0.1 0.1-0.1 0.3q0.1 0.4 0.1 0.8 0.1 2.4 0.1 4.7l0.3 9.1c0 1.9 3 2.1 3 0.2l-0.3-10.6c-0.1-2.5 0.5-7.9-3.4-7.4-1.5 0.1-2.8 1.1-4 1.8l-5 2.8-9.5 5.4c-1.6 0.9-0.4 3.6 1.3 2.7z"/>
	<path class="s2" d="m90.3 261.4q-6 1.6-11.7 4.4-5.6 2.7-10.5 6.5-5 3.8-9.1 8.5-4.1 4.8-7.2 10.2-0.9 1.5-1.6 3.1-0.8 1.6-1.5 3.3-0.7 1.6-1.3 3.3-0.6 1.6-1.1 3.3c-0.1 0.4 0 0.8 0.2 1.2 0.2 0.3 0.5 0.5 0.9 0.6 0.4 0.1 0.8 0.1 1.1-0.1 0.3-0.2 0.6-0.5 0.7-0.9q1.7-5.7 4.5-10.9 2.8-5.3 6.6-9.9 3.8-4.6 8.4-8.4 4.6-3.7 9.9-6.5 1.5-0.8 3-1.5 1.5-0.7 3.1-1.3 1.6-0.6 3.2-1.1 1.6-0.5 3.2-0.9c1.9-0.5 1.1-3.4-0.8-2.9z"/>
	<path class="s2" d="m62.5 297.7l-15.7 9.6q-0.4 0.3-0.8 0.5c-0.3 0.2-0.6 0.2-0.4 0.3-0.2-0.2-0.2-1.1-0.2-1.4l-0.3-4.5-0.6-9.1c-0.1-1.9-3.1-1.9-3 0l0.7 10.7c0.2 2.4-0.3 7.4 3.4 7.2 1.7-0.1 3.3-1.4 4.6-2.3l4.5-2.7 9.3-5.8c1.6-1 0.1-3.6-1.5-2.5z"/>
	<path class="s2" d="m141.9 465.3q5.8 1.5 11.1 4.1 5.4 2.7 10.1 6.3 4.7 3.6 8.6 8.1 3.9 4.5 6.9 9.7 0.8 1.5 1.6 3 0.7 1.5 1.4 3 0.6 1.6 1.2 3.1 0.5 1.6 1 3.2c0.1 0.4 0.4 0.7 0.7 0.9 0.3 0.2 0.7 0.2 1.1 0.1 0.4-0.1 0.7-0.3 0.9-0.6 0.2-0.4 0.3-0.8 0.2-1.2q-1.8-6-4.7-11.5-3-5.5-6.9-10.3-4-4.9-8.8-8.8-4.9-4-10.4-6.9-1.6-0.8-3.2-1.6-1.6-0.7-3.2-1.3-1.7-0.7-3.4-1.2-1.7-0.6-3.4-1c-1.9-0.5-2.7 2.4-0.8 2.9z"/>
	<path class="s2" d="m169 501.2l9.3 5.8 4.5 2.7c1.3 0.9 2.9 2.2 4.6 2.3 3.7 0.2 3.2-4.8 3.4-7.2l0.7-10.7c0.1-1.9-2.9-1.9-3 0l-0.6 9.1-0.3 4.3c0 0.4 0.1 1.4-0.2 1.6 0.2-0.2 0-0.1-0.2-0.2q-0.5-0.3-1-0.6l-15.7-9.6c-1.6-1.1-3.1 1.5-1.5 2.5z"/>
	<path fill-rule="evenodd" class="s6" d="m68 85.5c-7.7 0-14-6.2-14-14 0-7.7 6.3-14 14-14 7.7 0 14 6.3 14 14 0 7.8-6.3 14-14 14z"/>
	<path fill-rule="evenodd" class="s6" d="m44 359.8c-7.7 0-14-6.2-14-14 0-7.7 6.3-14 14-14 7.7 0 14 6.3 14 14 0 7.8-6.3 14-14 14z"/>
	<path fill-rule="evenodd" class="s6" d="m195 554.5c-7.7 0-14-6.2-14-14 0-7.7 6.3-14 14-14 7.7 0 14 6.3 14 14 0 7.8-6.3 14-14 14z"/>
</svg>