<svg version="1.2" xmlns="http://www.w3.org/2000/svg" viewBox="0 0 523 336" width="523" height="336">
	<title>undraw_faq_h01d</title>
	<style>
		.s0 { fill: #2f2e41 } 
		.s1 { fill: #ffffff } 
		.s2 { fill: #3f3d56 } 
		.s3 { fill: #ff671f } 
		.s4 { fill: #e6e6e6 } 
		.s5 { fill: #cccccc } 
		.s6 { fill: #f2f2f2 } 
	</style>
	<path fill-rule="evenodd" class="s0" d="m458.3 310.2c-16.8 16.9-44.1 16.9-60.9 0-16.8-16.8-16.8-44 0-60.9 16.8-16.8 44.1-16.8 60.9 0 16.8 16.9 16.8 44.1 0 60.9z"/>
	<path fill-rule="evenodd" class="s1" d="m427.6 283.7c-7.9 1.8-15.8-3.2-17.5-11.2-1.8-7.9 3.2-15.7 11.1-17.5 8-1.8 15.8 3.2 17.6 11.2 1.8 7.9-3.2 15.8-11.2 17.5z"/>
	<path fill-rule="evenodd" class="s2" d="m419.5 270.4c-2.6 0.5-5.2-1.1-5.8-3.8-0.6-2.6 1.1-5.2 3.7-5.8 2.7-0.6 5.3 1.1 5.9 3.7 0.5 2.7-1.1 5.3-3.8 5.9z"/>
	<path class="s3" d="m426.1 250.7c-17.6-0.1-29.9-3.2-29.9-19.2 0-15.9 14.3-28.8 31.9-28.8 17.7 0 31.9 13 31.9 28.9 0 16-16.2 19.1-33.9 19.1z"/>
	<path class="s4" d="m495.4 287c-5.1 17.5-19.9 29.8-35.2 40.2q-3.3 2.2-6.5 4.3 0 0 0 0-0.2 0.1-0.3 0.2-0.7 0.4-1.4 0.8l0.3 0.1c0 0 0.2 0.2 0 0.1q-0.2-0.1-0.3-0.1c-8.9-3.6-18-7.5-24.9-14.3-7.1-7-11.2-18-7.4-27.2q0.2-0.4 0.4-0.9 0.2-0.4 0.5-0.8 0.2-0.5 0.5-0.9 0.2-0.4 0.5-0.8 0.5-0.7 1-1.3c2.1-2.6 4.9-4.6 8.1-5.7 3.1-1.2 6.5-1.5 9.8-0.9 3.3 0.6 6.4 2 8.9 4.2 2.6 2.2 4.5 5 5.6 8.1 1.1-10.5-7.5-19.3-15.9-25.8-8.3-6.5-17.8-13.6-19.5-24.1-0.9-5.8 1.2-11.4 4.9-16q0.1-0.2 0.3-0.4 1.7-1.9 3.7-3.6 2-1.6 4.2-2.8 2.3-1.2 4.8-2 2.4-0.8 5-1.1c12.8-1.3 25.2 5.5 34.6 14.4 14.9 14.3 24 36.3 18.3 56.3z"/>
	<path class="s1" d="m471.3 264.1q0.9 1.4 1.7 2.9 0.8 1.5 1.5 3 0.7 1.6 1.3 3.2 0.6 1.6 1.1 3.2 0.4 1.5 0.7 3 0.2 1.5 0.4 3 0.2 1.5 0.3 3 0 1.5 0 3-0.2 3.1-0.7 6.2-0.4 3.1-1.3 6.1-0.9 3-2.1 5.8-1.2 2.9-2.7 5.6-1.2 2-2.5 4-1.3 2-2.7 3.9-1.4 1.9-3 3.7-1.5 1.8-3.1 3.5-3.3 2.2-6.5 4.3 0 0 0 0-0.2 0.1-0.3 0.2-0.7 0.4-1.4 0.8c0 0 0.5 0.3 0.3 0.2q-0.2-0.1-0.3-0.1c0.4-3.3 0.4-6.6 0-9.9-0.3-3.3-1.1-6.5-2.3-9.6-1.1-3.1-2.6-6-4.5-8.7-1.8-2.8-4-5.3-6.4-7.5q-1.9-1.6-3.9-3-2-1.4-4.2-2.6-2.1-1.2-4.4-2.1-2.3-0.9-4.7-1.5 0.5-0.7 1-1.3 0.9 0.3 1.9 0.6 0.9 0.3 1.8 0.6 0.9 0.3 1.7 0.7 0.9 0.4 1.8 0.8 3 1.5 5.8 3.4 2.8 2 5.3 4.3 2.4 2.4 4.4 5.1 2.1 2.7 3.7 5.7 1.4 2.7 2.4 5.6 1 2.9 1.6 6 0.6 3 0.8 6.1 0.1 3-0.1 6.1 0.5-0.5 1.1-1c6.8-6.3 12.8-13.6 16.9-22q1.3-2.7 2.3-5.4 1-2.8 1.6-5.7 0.7-2.9 0.9-5.9 0.3-2.9 0.2-5.9c-0.3-8.7-3.7-16.7-8.7-23.7q-2.1-2.7-4.3-5.4-2.2-2.6-4.7-5.1-2.4-2.5-4.9-4.8-2.6-2.3-5.3-4.5-2.8-2.2-5.7-4.2-2.8-2-5.8-3.9-3-1.8-6.1-3.5-3.1-1.6-6.3-3.1-0.2-0.1-0.3-0.2-0.1-0.1-0.1-0.3-0.1-0.1-0.1-0.3 0-0.1 0.1-0.3 0 0 0-0.1 0-0.1 0.1-0.1 0-0.1 0.1-0.1 0 0 0.1-0.1 0.1 0 0.1 0 0.1 0 0.2 0 0 0 0.1 0 0.1 0 0.1 0 1.6 0.8 3.2 1.5 3.2 1.6 6.3 3.4 3.2 1.8 6.2 3.8 3 2 5.9 4.2 2.9 2.2 5.6 4.5c7.1 6.1 13.8 12.9 18.8 20.9z"/>
	<path fill-rule="evenodd" class="s0" d="m73.7 335.5c-6 0-10.9-1.8-10.9-4 0-2.3 4.9-4.1 10.9-4.1 6 0 10.9 1.8 10.9 4.1 0 2.2-4.9 4-10.9 4z"/>
	<path fill-rule="evenodd" class="s0" d="m99.9 335c-6 0-10.9-1.8-10.9-4.1 0-2.2 4.9-4.1 10.9-4.1 6 0 10.9 1.9 10.9 4.1 0 2.3-4.9 4.1-10.9 4.1z"/>
	<path fill-rule="evenodd" class="s0" d="m134.6 266.3c-10.3 5.9-20.1 8.1-22 4.9-1.9-3.3 5-10.7 15.3-16.6 10.3-6 20.1-8.2 22-4.9 1.9 3.2-5 10.6-15.3 16.6z"/>
	<path fill-rule="evenodd" class="s0" d="m124.9 280.8c-3.8 23.6-25.9 39.5-49.4 35.7-23.5-3.9-39.4-25.9-35.6-49.5 3.8-23.5 25.9-39.4 49.4-35.6 23.5 3.9 39.5 25.9 35.6 49.4z"/>
	<path fill-rule="evenodd" class="s0" d="m62.8 307.7h13.1v23.5h-13.1z"/>
	<path fill-rule="evenodd" class="s0" d="m89 307.7h13.1v23.5h-13.1z"/>
	<path fill-rule="evenodd" class="s1" d="m83.5 277.8c-8.1 0-14.7-6.6-14.7-14.8 0-8.1 6.6-14.7 14.7-14.7 8.2 0 14.7 6.6 14.7 14.7 0 8.2-6.5 14.8-14.7 14.8z"/>
	<path fill-rule="evenodd" class="s2" d="m83.5 267.9c-2.7 0-4.9-2.1-4.9-4.9 0-2.7 2.2-4.9 4.9-4.9 2.7 0 4.9 2.2 4.9 4.9 0 2.8-2.2 4.9-4.9 4.9z"/>
	<path class="s4" d="m40.7 233.9c-3.5-15.6 7.6-31.3 24.8-35.2 17.2-3.8 33.9 5.7 37.4 21.3 3.5 15.6-7.9 21.3-25.1 25.2-17.2 3.8-33.7 4.3-37.1-11.3z"/>
	<path fill-rule="evenodd" class="s0" d="m53.4 263.2c-1.6 3.4-11.6 2-22.4-3.1-10.7-5.1-18.1-12-16.5-15.4 1.6-3.3 11.6-1.9 22.3 3.2 10.8 5.1 18.2 11.9 16.6 15.3z"/>
	<path class="s1" d="m61.3 289.5c0 4.2 10.8 12.5 22.9 12.5 12 0 23.3-11.8 23.3-16.1 0-4.2-11.3 0.9-23.3 0.9-12.1 0-22.9-1.5-22.9 2.7z"/>
	<path fill-rule="evenodd" class="s0" d="m232.6 335.5c-6 0-10.9-1.8-10.9-4 0-2.3 4.9-4.1 10.9-4.1 6 0 10.9 1.8 10.9 4.1 0 2.2-4.9 4-10.9 4z"/>
	<path fill-rule="evenodd" class="s0" d="m206.4 335c-6 0-10.9-1.8-10.9-4.1 0-2.2 4.9-4.1 10.9-4.1 6.1 0 10.9 1.9 10.9 4.1 0 2.3-4.8 4.1-10.9 4.1z"/>
	<path fill-rule="evenodd" class="s0" d="m193.7 271.2c-1.8 3.2-11.7 1-22-4.9-10.3-6-17.1-13.4-15.3-16.6 1.9-3.3 11.7-1.1 22.1 4.9 10.3 5.9 17.1 13.3 15.2 16.6z"/>
	<path fill-rule="evenodd" class="s0" d="m223.9 317c-23.8 0-43.1-19.2-43.1-43.1 0-23.8 19.3-43 43.1-43 23.8 0 43.1 19.2 43.1 43 0 23.9-19.3 43.1-43.1 43.1z"/>
	<path fill-rule="evenodd" class="s0" d="m230.4 307.7h13.1v23.5h-13.1z"/>
	<path fill-rule="evenodd" class="s0" d="m204.3 307.7h13v23.5h-13z"/>
	<path fill-rule="evenodd" class="s1" d="m213.8 277.8c-8.1 0-14.7-6.6-14.7-14.8 0-8.1 6.6-14.7 14.7-14.7 8.1 0 14.7 6.6 14.7 14.7 0 8.2-6.6 14.8-14.7 14.8z"/>
	<path fill-rule="evenodd" class="s2" d="m210.2 264.5c-1.9 1.9-5 1.9-6.9 0-1.9-1.9-1.9-5 0-6.9 2-1.9 5.1-1.9 7 0 1.9 1.9 1.9 5-0.1 6.9z"/>
	<path class="s3" d="m228.5 245.2c-17.2-3.9-28.6-9.6-25.1-25.2 3.5-15.6 20.2-25.1 37.4-21.3 17.2 3.9 28.3 19.6 24.9 35.2-3.5 15.6-20 15.1-37.2 11.3z"/>
	<path fill-rule="evenodd" class="s0" d="m268.9 306.8c-3.6 0.9-9-7.6-12-19.1-3.1-11.5-2.6-21.6 1-22.5 3.6-1 9 7.5 12 19 3.1 11.5 2.6 21.6-1 22.6z"/>
	<path class="s1" d="m214.1 286.8c-7.9 0-15.3-5.1-15.3-0.9 0 4.3 7.4 16.1 15.3 16.1 7.9 0 15.1-8.3 15.1-12.5 0-4.2-7.2-2.7-15.1-2.7z"/>
	<path class="s3" d="m158.5 202.5h-3.9c-1.6 0-3.3-0.3-4.9-0.9-1.6-0.7-3-1.7-4.2-2.9-1.2-1.1-2.1-2.6-2.8-4.1-0.6-1.6-1-3.3-1-5v-3.2c0-7.9 1.5-14.6 4.5-19.8q1.4-2.2 2.8-4.4 1.5-2.2 3-4.3 1.6-2.1 3.3-4.2 1.7-2 3.4-3.9 1.2-1.2 2.3-2.5 1.2-1.2 2.2-2.5 1.1-1.3 2.1-2.6 1-1.3 2-2.7 0.6-1.1 1.2-2.2 0.5-1.2 0.8-2.4 0.4-1.2 0.5-2.5 0.2-1.2 0.2-2.5c0-8-5.2-11.8-15.9-11.8q-2.2 0-4.5 0.2-2.2 0.1-4.4 0.5-2.2 0.3-4.3 0.8-2.2 0.5-4.3 1.1c-2.2 0.6-4.5 0.7-6.8 0.3-2.2-0.4-4.3-1.3-6.2-2.7-1.8-1.4-3.3-3.2-4.3-5.2-1-2.1-1.5-4.3-1.5-6.6v-6.5q0-2.1 0.5-4.1 0.6-2 1.8-3.8 1.1-1.7 2.7-3.1 1.6-1.4 3.5-2.2 3.8-1.6 7.7-2.8 3.9-1.3 7.9-2 4-0.8 8.1-1.2 4-0.4 8.1-0.3c11.5 0 21.8 1.9 30.7 5.7 9 3.8 16 9.2 21 15.9q1.9 2.5 3.3 5.3 1.4 2.8 2.4 5.7 1 3 1.4 6.1 0.5 3.1 0.5 6.2c0 9-2.5 16.8-7.3 23.2-4.8 6.4-11.7 13.4-20.4 20.8q-1.7 1.4-3.4 2.9-1.7 1.5-3.3 3-1.7 1.6-3.2 3.2-1.6 1.6-3.2 3.2-0.9 1.1-1.8 2.2-0.8 1.2-1.5 2.5-0.7 1.3-1.2 2.6-0.6 1.4-0.9 2.8c-0.2 1.5-0.8 2.9-1.5 4.2-0.8 1.4-1.7 2.5-2.9 3.5-1.2 1-2.5 1.7-3.9 2.3-1.4 0.5-2.9 0.7-4.4 0.7z"/>
	<path class="s3" d="m156.3 263.3h-0.5c-6.3 0-12.4-2.5-16.9-7-4.5-4.5-7-10.6-7-16.9 0-6.4 2.5-12.5 7-17 4.5-4.5 10.6-7 16.9-7h0.5c6.4 0 12.5 2.5 17 7 4.5 4.5 7 10.6 7 17 0 6.3-2.5 12.4-7 16.9-4.5 4.5-10.6 7-17 7z"/>
	<path class="s5" d="m312 336h-311q-0.4 0-0.7-0.3-0.3-0.3-0.3-0.7 0-0.4 0.3-0.7 0.3-0.3 0.7-0.3h311q0.4 0 0.7 0.3 0.3 0.3 0.3 0.7 0 0.4-0.3 0.7-0.3 0.3-0.7 0.3z"/>
	<path class="s5" d="m522 336h-166q-0.4 0-0.7-0.3-0.3-0.3-0.3-0.7 0-0.4 0.3-0.7 0.3-0.3 0.7-0.3h166q0.4 0 0.7 0.3 0.3 0.3 0.3 0.7 0 0.4-0.3 0.7-0.3 0.3-0.7 0.3z"/>
	<path fill-rule="evenodd" class="s0" d="m419 306.8c-11.9 0.2-21.6-2.6-21.7-6.3-0.1-3.8 9.5-7 21.4-7.2 11.9-0.3 21.6 2.6 21.7 6.3 0 3.7-9.5 7-21.4 7.2z"/>
	<path class="s6" d="m408.2 149h-26q-1 0-2-0.4-0.9-0.4-1.6-1.1-0.7-0.7-1.1-1.6-0.3-0.9-0.3-1.9v-26q0-1 0.3-1.9 0.4-0.9 1.1-1.6 0.7-0.7 1.6-1.1 1-0.4 2-0.4h26q1 0 1.9 0.4 0.9 0.4 1.6 1.1 0.7 0.7 1.1 1.6 0.4 0.9 0.4 1.9v26q0 1-0.4 1.9-0.4 0.9-1.1 1.6-0.7 0.7-1.6 1.1-0.9 0.4-1.9 0.4zm-26-34q-0.6 0-1.2 0.2-0.5 0.3-1 0.7-0.4 0.4-0.6 1-0.2 0.5-0.2 1.1v26q0 0.6 0.2 1.1 0.2 0.6 0.6 1 0.5 0.4 1 0.7 0.6 0.2 1.2 0.2h26q0.6 0 1.1-0.2 0.6-0.3 1-0.7 0.4-0.4 0.6-1 0.3-0.5 0.3-1.1v-26q0-0.6-0.3-1.1-0.2-0.6-0.6-1-0.4-0.4-1-0.7-0.5-0.2-1.1-0.2z"/>
	<path class="s6" d="m420.2 132h-26q-1 0-2-0.4-0.9-0.4-1.6-1.1-0.7-0.7-1.1-1.6-0.3-0.9-0.3-1.9v-26q0-1 0.3-1.9 0.4-0.9 1.1-1.6 0.7-0.7 1.6-1.1 1-0.4 2-0.4h26q1 0 1.9 0.4 0.9 0.4 1.6 1.1 0.7 0.7 1.1 1.6 0.4 0.9 0.4 1.9v26q0 1-0.4 1.9-0.4 0.9-1.1 1.6-0.7 0.7-1.6 1.1-0.9 0.4-1.9 0.4zm-26-34q-0.6 0-1.2 0.2-0.5 0.3-1 0.7-0.4 0.4-0.6 1-0.2 0.5-0.2 1.1v26q0 0.6 0.2 1.1 0.2 0.6 0.6 1 0.5 0.4 1 0.7 0.6 0.2 1.2 0.2h26q0.6 0 1.1-0.2 0.6-0.3 1-0.7 0.4-0.4 0.6-1 0.3-0.5 0.3-1.1v-26q0-0.6-0.3-1.1-0.2-0.6-0.6-1-0.4-0.4-1-0.7-0.5-0.2-1.1-0.2z"/>
	<path class="s6" d="m215.2 49h-26q-1 0-2-0.4-0.9-0.4-1.6-1.1-0.7-0.7-1.1-1.6-0.3-0.9-0.3-1.9v-26q0-1 0.3-1.9 0.4-0.9 1.1-1.6 0.7-0.7 1.6-1.1 1-0.4 2-0.4h26q1 0 1.9 0.4 0.9 0.4 1.6 1.1 0.7 0.7 1.1 1.6 0.4 0.9 0.4 1.9v26q0 1-0.4 1.9-0.4 0.9-1.1 1.6-0.7 0.7-1.6 1.1-0.9 0.4-1.9 0.4zm-26-34q-0.6 0-1.2 0.2-0.5 0.3-1 0.7-0.4 0.4-0.6 1-0.2 0.5-0.2 1.1v26q0 0.6 0.2 1.1 0.2 0.6 0.6 1 0.5 0.4 1 0.7 0.6 0.2 1.2 0.2h26q0.6 0 1.1-0.2 0.6-0.3 1-0.7 0.4-0.4 0.6-1 0.3-0.5 0.3-1.1v-26q0-0.6-0.3-1.1-0.2-0.6-0.6-1-0.4-0.4-1-0.7-0.5-0.2-1.1-0.2z"/>
	<path class="s6" d="m199.2 36h-26q-1 0-2-0.4-0.9-0.4-1.6-1.1-0.7-0.7-1.1-1.6-0.3-0.9-0.3-1.9v-26q0-1 0.3-1.9 0.4-0.9 1.1-1.6 0.7-0.7 1.6-1.1 1-0.4 2-0.4h26q1 0 1.9 0.4 0.9 0.4 1.6 1.1 0.7 0.7 1.1 1.6 0.4 0.9 0.4 1.9v26q0 1-0.4 1.9-0.4 0.9-1.1 1.6-0.7 0.7-1.6 1.1-0.9 0.4-1.9 0.4zm-26-34q-0.6 0-1.2 0.2-0.5 0.3-1 0.7-0.4 0.4-0.6 1-0.2 0.5-0.2 1.1v26q0 0.6 0.2 1.1 0.2 0.6 0.6 1 0.5 0.4 1 0.7 0.6 0.2 1.2 0.2h26q0.6 0 1.1-0.2 0.6-0.3 1-0.7 0.4-0.4 0.6-1 0.3-0.5 0.3-1.1v-26q0-0.6-0.3-1.1-0.2-0.6-0.6-1-0.4-0.4-1-0.7-0.5-0.2-1.1-0.2z"/>
	<path fill-rule="evenodd" class="s6" d="m321.2 189.6c-3.6 0-6.4-2.9-6.4-6.4 0-3.6 2.8-6.5 6.4-6.5 3.6 0 6.5 2.9 6.5 6.5 0 3.5-2.9 6.4-6.5 6.4z"/>
	<path fill-rule="evenodd" class="s6" d="m61.2 166.6c-3.6 0-6.4-2.9-6.4-6.4 0-3.6 2.8-6.5 6.4-6.5 3.6 0 6.5 2.9 6.5 6.5 0 3.5-2.9 6.4-6.5 6.4z"/>
	<path fill-rule="evenodd" class="s6" d="m497.2 222.6c-3.6 0-6.4-2.9-6.4-6.4 0-3.6 2.8-6.5 6.4-6.5 3.6 0 6.5 2.9 6.5 6.5 0 3.5-2.9 6.4-6.5 6.4z"/>
</svg>