<svg version="1.2" xmlns="http://www.w3.org/2000/svg" viewBox="0 0 677 607" width="677" height="607">
	<title>undraw_inbox_ctn4</title>
	<style>
		.s0 { fill: #f2f2f2 } 
		.s1 { fill: #ffffff } 
		.s2 { fill: #e6e6e6 } 
		.s3 { fill: #ff671f } 
		.s4 { fill: #2f2e41 } 
		.s5 { fill: #3f3d56 } 
		.s6 { fill: #ff6584 } 
	</style>
	<path class="s0" d="m471.4 601.4c-9-7.6-14.5-19.6-13-31.3 1.4-11.7 10.3-22.4 21.8-24.9 11.5-2.5 24.6 4.4 28.1 15.6 1.9-21.7 4.1-44.3 15.7-62.7 10.4-16.7 28.5-28.7 48-30.8 19.6-2.2 40.3 5.9 52.5 21.4 12.2 15.4 15.2 37.9 6.6 55.7-6.3 13-17.9 22.8-30.1 30.7-9.7 6.3-20 11.7-30.7 16.1-10.6 4.5-21.7 7.9-33 10.4-11.3 2.5-22.8 3.9-34.4 4.4-11.6 0.4-23.2-0.2-34.6-1.9"/>
	<path class="s1" d="m605.1 473.7q-6.1 4.9-11.9 10.1-5.8 5.3-11.3 10.8-5.6 5.5-10.8 11.2-5.3 5.8-10.3 11.8-7.7 9.4-14.8 19.4-7 9.9-13.3 20.4-6.2 10.4-11.7 21.3-5.4 10.9-10 22.2c-0.9 2.2 2.7 3.2 3.5 1 5-12.2 10.8-24 17.3-35.5 6.4-11.5 13.6-22.6 21.5-33.1 7.8-10.6 16.3-20.7 25.4-30.2 9.1-9.6 18.8-18.5 29-26.8 1.9-1.5-0.8-4.1-2.6-2.6z"/>
	<path class="s2" d="m333 102h-316c14-30.2 36.2-55.7 64.2-73.6 28-17.9 60.6-27.4 93.8-27.4 33.2 0 65.8 9.5 93.8 27.4 28 17.9 50.2 43.4 64.2 73.6z"/>
	<path class="s3" d="m315.6 254.2l13.3-6.5q1.1-0.5 2.3-0.6 1.2 0 2.3 0.4 1.1 0.4 2 1.1 0.9 0.8 1.4 1.9l50.8 103.9c0.8 1.6 1.2 3.3 1.4 5 0.1 1.8-0.2 3.5-0.7 5.2-0.6 1.7-1.5 3.2-2.7 4.5-1.1 1.3-2.5 2.4-4.1 3.2-1.6 0.8-3.3 1.2-5.1 1.3-1.7 0.1-3.5-0.1-5.1-0.7-1.7-0.6-3.2-1.4-4.6-2.6-1.3-1.2-2.3-2.6-3.1-4.2l-50.8-103.8q-0.5-1.1-0.6-2.3-0.1-1.2 0.3-2.3 0.4-1.2 1.2-2.1 0.8-0.8 1.8-1.4z"/>
	<path class="s4" d="m366.3 282c0.5-3.4-2.8-6.3-6.2-6.8-3.4-0.4-6.7 0.9-9.9 2.2-5.6 2.4-11.3 4.8-16 8.7-4.7 3.9-8.3 9.5-8.3 15.6 0.1 5.8 3.3 11 6.4 15.9l29.2 45.8c3.1 4.8 6.6 10 12.1 11.9q1.3 0.4 2.7 0.5 1.4 0.2 2.8 0.1 1.4 0 2.8-0.3 1.4-0.3 2.7-0.8c2.7-1 5.1-2.4 7.3-4.2 2.2-1.7 4.2-3.8 5.7-6.2 1.6-2.3 2.7-4.9 3.5-7.7 0.7-2.7 1-5.5 0.8-8.3-1-13.2-11.4-23.2-19.2-33.8q-2.9-3.9-5.3-8.1-2.5-4.2-4.6-8.7-2-4.4-3.6-9-1.6-4.6-2.7-9.4"/>
	<path class="s3" d="m284 529.2q-0.6 0-1.1-0.1-0.6-0.1-1.2-0.3-0.5-0.2-1-0.5-0.5-0.3-0.9-0.7l-11.2-9.7q-0.9-0.8-1.5-2-0.6-1.1-0.7-2.4-0.1-1.3 0.3-2.6 0.4-1.2 1.3-2.2l80.8-92.7q0.8-1 2-1.6 1.1-0.6 2.4-0.7 1.3 0 2.5 0.4 1.3 0.4 2.2 1.2l11.2 9.7q0.9 0.9 1.5 2 0.6 1.2 0.7 2.5 0.1 1.3-0.3 2.5-0.5 1.2-1.3 2.2l-80.8 92.8q-0.4 0.5-1 0.9-0.5 0.4-1.2 0.7-0.6 0.3-1.3 0.5-0.7 0.1-1.4 0.1z"/>
	<path class="s3" d="m272.5 448.3q-1 0-1.9-0.3-0.9-0.3-1.7-0.8-0.8-0.5-1.4-1.2-0.6-0.7-1-1.6l-5.9-13.5q-0.5-1.2-0.6-2.5 0-1.3 0.5-2.5 0.5-1.2 1.4-2.1 0.8-1 2-1.5l112.7-49.4q1.2-0.6 2.4-0.6 1.3 0 2.5 0.5 1.2 0.4 2.2 1.3 0.9 0.9 1.4 2.1l6 13.5q0.5 1.2 0.5 2.5 0 1.3-0.4 2.5-0.5 1.2-1.4 2.1-0.9 1-2.1 1.5l-112.6 49.4q-0.3 0.2-0.6 0.3-0.4 0.1-0.7 0.1-0.3 0.1-0.6 0.1-0.4 0.1-0.7 0.1z"/>
	<path class="s3" d="m262.2 495.7l14.7 0.7q1.2 0.1 2.3-0.3 1.2-0.4 2.1-1.2 0.8-0.8 1.3-1.9 0.6-1.1 0.6-2.3l3-60.5q0-1.2-0.4-2.3-0.4-1.2-1.2-2-0.8-0.9-1.9-1.4-1-0.6-2.2-0.6l-14.8-0.7q-1.2-0.1-2.3 0.3-1.1 0.4-2 1.2-0.9 0.8-1.4 1.9-0.5 1.1-0.6 2.2l-2.9 60.6q-0.1 1.2 0.3 2.3 0.4 1.2 1.2 2 0.8 0.9 1.9 1.4 1.1 0.5 2.3 0.6z"/>
	<path fill-rule="evenodd" class="s3" d="m469.9 326c-28.2 0-51-22.8-51-51 0-28.2 22.8-51 51-51 28.2 0 51 22.8 51 51 0 28.2-22.8 51-51 51z"/>
	<path class="s4" d="m450.9 363.2l0.1-0.4q0.1-0.8 0.1-1.5 0-0.8-0.3-1.6-0.2-0.7-0.7-1.4-0.4-0.6-1-1.2l-19.4-17.7 2.3-2.6q0.7-0.9 1.1-2 0.4-1.2 0.3-2.4-0.1-1.2-0.6-2.2-0.5-1.1-1.4-1.9l-12.1-10.5q-0.9-0.8-2-1.1-1.2-0.4-2.4-0.3-1.1 0-2.2 0.6-1.1 0.5-1.9 1.4l-1.9 2.2-17.6-16.1q-0.6-0.5-1.3-0.9-0.7-0.4-1.5-0.5-0.7-0.2-1.5-0.1-0.8 0-1.6 0.2c-11.7 3.8-22.8 9.1-33.1 15.8-10.4 6.6-19.8 14.6-28 23.8-8.2 9.1-15.2 19.3-20.8 30.2-5.6 11-9.7 22.6-12.3 34.6l-0.1 0.4q-0.1 0.8-0.1 1.6 0.1 0.8 0.3 1.5 0.2 0.8 0.7 1.4 0.4 0.7 1 1.2l57.8 52.6q0.6 0.6 1.3 0.9 0.7 0.4 1.5 0.6 0.8 0.1 1.5 0.1 0.8 0 1.6-0.3c11.7-3.8 22.8-9 33.2-15.7 10.3-6.7 19.7-14.7 27.9-23.8 8.2-9.2 15.2-19.3 20.8-30.3 5.6-10.9 9.7-22.6 12.3-34.6z"/>
	<path class="s3" d="m365.9 478.8l-14-4.6q-1.2-0.4-2.1-1.2-0.9-0.8-1.4-1.8-0.5-1.1-0.6-2.3-0.1-1.2 0.3-2.3l36.1-109.8c0.6-1.7 1.5-3.3 2.6-4.6 1.2-1.3 2.6-2.4 4.1-3.2 1.6-0.8 3.3-1.3 5.1-1.4 1.7-0.1 3.5 0.1 5.1 0.6 1.7 0.6 3.3 1.5 4.6 2.6 1.3 1.2 2.4 2.6 3.2 4.1 0.8 1.6 1.3 3.3 1.4 5.1 0.1 1.7-0.1 3.5-0.6 5.1l-36.2 109.9q-0.4 1.1-1.2 2-0.8 0.9-1.8 1.4-1.1 0.6-2.3 0.7-1.2 0.1-2.3-0.3z"/>
	<path class="s4" d="m355.6 418.2c-2.8 2-2.6 6.5-0.5 9.2 2 2.8 5.3 4.2 8.5 5.6 5.6 2.3 11.3 4.7 17.3 5.4 6.1 0.6 12.6-0.7 17-5 4.1-4.1 5.6-10 6.9-15.7l12.4-52.9c1.3-5.6 2.6-11.7 0.1-16.9q-0.6-1.2-1.5-2.3-0.9-1.1-1.9-2.1-1-1-2.2-1.8-1.1-0.8-2.4-1.3c-2.6-1.2-5.3-2-8.1-2.4-2.8-0.3-5.7-0.2-8.4 0.3-2.8 0.5-5.5 1.5-7.9 2.9-2.5 1.4-4.7 3.1-6.6 5.2-8.7 9.9-8.7 24.4-10.8 37.3q-0.8 4.9-2.1 9.6-1.3 4.7-3 9.2-1.8 4.6-4 8.9-2.1 4.4-4.8 8.5"/>
	<path class="s4" d="m447 289.3q-0.3-0.6-0.6-1.2-0.3-0.5-0.5-1.1-0.2-0.7-0.3-1.3-0.2-0.6-0.3-1.3 0-0.8 0.1-1.7 0.1-0.9 0.4-1.7 0.3-0.9 0.8-1.6 0.4-0.8 1.1-1.4 0.4-0.5 0.9-0.8 0.6-0.4 1.2-0.6 0.6-0.2 1.2-0.3 0.6 0 1.2 0c2.2 0.3 4.1 1.9 5.3 4.3l12.7-15.2 1.6 1.3-15.1 17.9-0.5-1.7c-0.7-2-2.1-4.3-4.2-4.6q-0.4 0-0.8 0-0.4 0.1-0.8 0.2-0.4 0.2-0.7 0.4-0.4 0.2-0.6 0.5-0.5 0.5-0.8 1.1-0.4 0.5-0.6 1.1-0.3 0.7-0.3 1.3-0.1 0.7-0.1 1.3c0.3 3.1 2.4 5.7 4.8 8.5l-1.5 1.3q-0.5-0.6-1-1.1-0.5-0.6-0.9-1.2-0.4-0.6-0.9-1.2-0.4-0.6-0.8-1.2z"/>
	<path fill-rule="evenodd" class="s4" d="m453.7 252.6l1.4-1.3 7.3 8-1.5 1.3z"/>
	<path fill-rule="evenodd" class="s4" d="m476.5 277.8l1.5-1.3 7.2 7.9-1.4 1.4z"/>
	<path class="s4" d="m508.2 278.9c-14.1-7.5-29.8-15.7-37.5-30.4-3.5-6.6-5.4-14.5-4.1-21.9q0.4-2.7 1.4-5.2 1-2.5 2.5-4.7 1.4-2.2 3.4-4.1 1.9-1.8 4.2-3.3c12.2-7.6 28.5-6.6 41.9-3.1q5.1 1.4 10 3.4 4.9 2 9.5 4.6 4.6 2.5 8.9 5.6 4.2 3.1 8.1 6.7 3.9 3.6 7.4 7.6 3.5 4.1 6.5 8.5 3 4.4 5.4 9.1 2.5 4.7 4.4 9.7 0.9 2.5 1.6 5 0.8 2.5 1.4 5.1 0.5 2.6 1 5.2 0.4 2.6 0.6 5.2 0.2 3.5 0.3 7.1 0 3.6-0.2 7.1-0.2 3.6-0.6 7.1-0.4 3.6-1.1 7.1c-3 18.4-8.7 36.2-10.8 54.7-1.9 16.7-1 34.4 7.3 49.4 6.5 11.6 17.4 20.2 29.7 25q4.6 1.8 9.5 2.9 4.8 1 9.8 1.3 4.9 0.2 9.9-0.4 4.9-0.6 9.6-1.9 1.2-0.4 2.4-0.8 1.1-0.4 2.2-0.9 1.1-0.4 2.2-0.9 1.2-0.6 2.2-1.1c1.7-0.9 0.2-3.5-1.5-2.6-11.8 6.1-25.8 7.1-38.6 3.7-12.8-3.3-24.8-10.9-32.4-21.9-9.5-14-11.1-31.7-9.7-48.1 1.7-18.8 7.4-36.8 10.7-55.3q0.7-3.5 1.2-7.1 0.5-3.6 0.8-7.2 0.3-3.6 0.3-7.2 0.1-3.7 0-7.3-0.2-2.7-0.5-5.5-0.3-2.7-0.8-5.4-0.5-2.7-1.2-5.3-0.7-2.7-1.6-5.3c-2.3-6.8-5.4-13.3-9.2-19.4-3.8-6.1-8.4-11.7-13.5-16.8-5.1-5.1-10.7-9.5-16.9-13.3-6.1-3.8-12.6-6.8-19.5-9.1-13.5-4.3-29.4-5.9-42.8-0.4-6.8 2.7-12.7 7.4-15.9 14-3.3 6.9-3.6 14.8-1.7 22.2 4 16.3 17.5 27.1 31.4 35.2 3.6 2.1 7.2 4.1 10.8 6 1.7 0.9 3.3-1.7 1.6-2.6z"/>
	<path class="s5" d="m175 350c-96.5 0-175-78.5-175-175q0-9.5 1-18.9 1-9.4 3-18.7 2.1-9.3 5.1-18.2 3-9 7-17.6c14-30.4 36.4-56 64.6-74 28.2-18 60.9-27.6 94.3-27.6 33.4 0 66.1 9.6 94.3 27.6 28.2 18 50.6 43.6 64.6 74q4 8.6 7 17.6 3 8.9 5.1 18.2 2 9.3 3 18.7 1 9.4 1 18.9c0 96.5-78.5 175-175 175zm0-348c-16.4 0-32.8 2.4-48.5 7-15.8 4.7-30.8 11.5-44.7 20.3-13.8 8.9-26.3 19.7-37.1 32-10.9 12.4-19.9 26.2-26.8 41.1q-3.9 8.5-6.9 17.4-3 8.9-5 18-2 9.2-3 18.5-1 9.3-1 18.7c0 95.4 77.6 173 173 173 95.4 0 173-77.6 173-173q0-9.4-1-18.7-1-9.3-3-18.5-2-9.1-5-18-3-8.9-6.9-17.4c-6.9-14.9-15.9-28.7-26.8-41.1-10.8-12.3-23.3-23.1-37.1-32-13.9-8.8-28.9-15.6-44.7-20.3-15.7-4.6-32.1-7-48.5-7z"/>
	<path class="s1" d="m239.3 83.2h-129.5c-1.6 0-3.1-0.6-4.2-1.7-1.2-1.2-1.8-2.7-1.8-4.3 0-1.6 0.6-3.2 1.8-4.3 1.1-1.1 2.6-1.8 4.2-1.8h129.5c1.6 0 3.1 0.7 4.3 1.8 1.1 1.1 1.7 2.7 1.7 4.3 0 1.6-0.6 3.1-1.7 4.3-1.2 1.1-2.7 1.7-4.3 1.7z"/>
	<path class="s1" d="m197.8 57.2h-46.5c-1.6 0-3.1-0.6-4.2-1.7-1.2-1.2-1.8-2.7-1.8-4.3 0-1.6 0.6-3.2 1.8-4.3 1.1-1.1 2.6-1.8 4.2-1.8h46.5c1.6 0 3.1 0.7 4.3 1.8 1.1 1.1 1.7 2.7 1.7 4.3 0 1.6-0.6 3.1-1.7 4.3-1.2 1.1-2.7 1.7-4.3 1.7z"/>
	<path class="s6" d="m110 162.4l-3.9-1.3c-14-4.7-23.1-7.7-26.4-15-0.6-1.4-1-2.9-1.1-4.4 0-1.5 0.2-3 0.7-4.4 0.5-1.4 1.3-2.7 2.4-3.8 1-1.1 2.2-2 3.6-2.6q0.1-0.1 0.3-0.2 1.2-0.5 2.5-0.8 1.4-0.2 2.7-0.2 1.4 0 2.7 0.3 1.3 0.3 2.5 0.9 0.4-1.3 1-2.4 0.7-1.2 1.6-2.3 0.9-1 2-1.8 1-0.8 2.3-1.4c1.3-0.6 2.8-0.9 4.3-1 1.5 0 3 0.2 4.4 0.7 1.4 0.5 2.7 1.3 3.8 2.4 1.1 1 2 2.2 2.6 3.6q0.1 0.1 0.2 0.3c3.2 7.3-0.7 16.1-6.6 29.6z"/>
	<path class="s5" d="m230.2 277.4h-112.3c-1.7 0-3.4-0.3-5-1-1.6-0.6-3.1-1.6-4.3-2.8-1.2-1.2-2.2-2.7-2.8-4.3-0.7-1.6-1-3.3-1-5v-71.5c0-1.7 0.3-3.4 1-5 0.6-1.6 1.6-3 2.8-4.2 1.2-1.3 2.7-2.2 4.3-2.9 1.6-0.7 3.3-1 5-1h112.3c1.8 0 3.5 0.3 5.1 1 1.5 0.7 3 1.6 4.2 2.9 1.2 1.2 2.2 2.6 2.9 4.2 0.6 1.6 1 3.3 1 5v71.5c0 1.7-0.4 3.4-1 5-0.7 1.6-1.7 3.1-2.9 4.3-1.2 1.2-2.7 2.2-4.2 2.8-1.6 0.7-3.3 1-5.1 1zm-112.3-94.8c-1.3 0-2.7 0.3-3.9 0.8-1.2 0.5-2.4 1.3-3.3 2.2-1 1-1.7 2.1-2.2 3.3-0.5 1.3-0.8 2.6-0.8 3.9v71.5c0 1.4 0.3 2.7 0.8 3.9 0.5 1.3 1.2 2.4 2.2 3.3 0.9 1 2.1 1.7 3.3 2.3 1.2 0.5 2.6 0.7 3.9 0.7h112.3c1.4 0 2.7-0.2 3.9-0.7 1.3-0.6 2.4-1.3 3.4-2.3 0.9-0.9 1.7-2 2.2-3.3 0.5-1.2 0.7-2.5 0.7-3.9v-71.5c0-1.3-0.2-2.6-0.7-3.9-0.5-1.2-1.3-2.3-2.2-3.3-1-0.9-2.1-1.7-3.4-2.2-1.2-0.5-2.5-0.8-3.9-0.8z"/>
	<path class="s5" d="m173.5 227.9q-1.2 0-2.3-0.1-1.1-0.2-2.1-0.5-1.1-0.4-2.1-0.9-1-0.5-1.9-1.1l-56.4-39.4 1.7-2.4 56.3 39.4q1.5 1 3.2 1.6 1.7 0.5 3.5 0.5 1.7 0 3.5-0.5 1.7-0.5 3.1-1.5l58.1-39.2 1.6 2.4-58 39.2q-0.9 0.6-1.9 1.1-1 0.5-2 0.8-1.1 0.3-2.2 0.5-1 0.1-2.1 0.1z"/>
	<path fill-rule="evenodd" class="s5" d="m173.3 245.4c-9.6 0-17.5-7.9-17.5-17.6 0-9.6 7.9-17.5 17.5-17.5 9.7 0 17.5 7.9 17.5 17.5 0 9.7-7.8 17.6-17.5 17.6z"/>
	<path class="s2" d="m675.2 606.2h-442.3c-0.3 0-0.6-0.2-0.8-0.4-0.2-0.2-0.4-0.5-0.4-0.8 0-0.4 0.2-0.7 0.4-0.9 0.2-0.2 0.5-0.3 0.8-0.3h442.3c0.3 0 0.6 0.1 0.9 0.3 0.2 0.2 0.3 0.5 0.3 0.9 0 0.3-0.1 0.6-0.3 0.8-0.3 0.2-0.6 0.4-0.9 0.4z"/>
</svg>