<svg version="1.2" xmlns="http://www.w3.org/2000/svg" viewBox="0 0 892 501" width="892" height="501">
	<title>undraw_notebook_8ihb</title>
	<style>
		.s0 { fill: #f1f1f1 } 
		.s1 { fill: #cbcbcb } 
		.s2 { fill: #e5e5e5 } 
		.s3 { fill: #ffffff } 
		.s4 { fill: #ff671f } 
		.s5 { fill: #3f3d56 } 
		.s6 { fill: #ffb8b8 } 
		.s7 { fill: #2f2e41 } 
		.s8 { fill: #a0616a } 
	</style>
	<path id="b2aec908-dac2-485e-9341-1f8763a52ddc-501" class="s0" d="m831.6 471.6q-0.1 3.4-0.4 6.7-0.4 3.4-0.9 6.7-0.6 3.4-1.4 6.7-0.8 3.2-1.8 6.5-0.1 0.3-0.2 0.5h-16.8q0.1-0.2 0.1-0.5c1.1-12.9-5.3-90.1-13-103.5 0.7 1.1 35.7 36.1 34.4 76.9z"/>
	<path id="bc80851e-3fc6-46a5-adb1-be50bb758626-502" class="s0" d="m830.3 498.2q-0.2 0.3-0.4 0.5h-12.6q0.2-0.2 0.4-0.5c2-3.8 8.2-15 13.9-26.6 6.1-12.5 11.7-25.4 11.3-30.1 0.1 1 4.3 33.3-12.6 56.7z"/>
	<path id="ac74e0d2-c10f-4860-b119-67c8c5820ae0-503" class="s0" d="m46.4 478.6q0 2.5 0.3 5 0.2 2.5 0.6 5 0.4 2.4 1 4.9 0.6 2.4 1.4 4.8 0.1 0.2 0.1 0.4h12.5q-0.1-0.1-0.1-0.4c-0.8-9.5 3.9-66.9 9.7-76.8-0.5 0.8-26.5 26.8-25.5 57.1z"/>
	<path id="b887613c-750d-48e2-8424-1e5e637b4506-504" class="s0" d="m47.3 498.3q0.1 0.2 0.3 0.4h9.3q-0.1-0.1-0.2-0.4c-1.6-2.8-6.1-11.1-10.3-19.7-4.6-9.3-8.8-18.9-8.4-22.4-0.1 0.8-3.3 24.7 9.3 42.1z"/>
	<path class="s1" d="m654 351.2c-93.9-39.8-178.9-38.3-259-14-123.3-21.5-207.8-18.2-262 14v-100h521z"/>
	<path class="s2" d="m654 323.7c-86.5-39.2-173-41.7-260.7 0-89.9-25.8-176.8-25.6-260.8 0v-304c89.3-26.6 176.2-26 260.8 0 89.4-25.9 176.4-26.7 260.7 0z"/>
	<path class="s3" d="m156 57.5l-2.9-7.5c1.1-0.4 28.4-11 68.4-16.3 37-5 92.1-6.2 144.6 16.4l-3.1 7.3c-50.8-21.8-104.3-20.6-140.2-15.8-39.1 5.2-66.5 15.8-66.8 15.9z"/>
	<path class="s3" d="m156 85.5l-2.9-7.5c1.1-0.4 28.4-11 68.4-16.3 37-5 92.1-6.2 144.6 16.4l-3.1 7.3c-50.8-21.8-104.3-20.6-140.2-15.8-39.1 5.2-66.5 15.8-66.8 15.9z"/>
	<path class="s3" d="m156 113.5l-2.9-7.5c1.1-0.4 28.4-11 68.4-16.3 37-5 92.1-6.2 144.6 16.4l-3.1 7.3c-50.8-21.8-104.3-20.6-140.2-15.8-39.1 5.2-66.5 15.8-66.8 15.9z"/>
	<path class="s3" d="m156 141.5l-2.9-7.5c1.1-0.4 28.4-11 68.4-16.3 37-5 92.1-6.2 144.6 16.4l-3.1 7.3c-50.8-21.8-104.3-20.6-140.2-15.8-39.1 5.2-66.5 15.8-66.8 15.9z"/>
	<path class="s3" d="m156 169.5l-2.9-7.5c1.1-0.4 28.4-11 68.4-16.3 37-5 92.1-6.2 144.6 16.4l-3.1 7.3c-50.8-21.8-104.3-20.6-140.2-15.8-39.1 5.2-66.5 15.8-66.8 15.9z"/>
	<path class="s3" d="m156 197.5l-2.9-7.5c1.1-0.4 28.4-11 68.4-16.3 37-5 92.1-6.2 144.6 16.4l-3.1 7.3c-50.8-21.8-104.3-20.6-140.2-15.8-39.1 5.2-66.5 15.8-66.8 15.9z"/>
	<path class="s4" d="m417 256.5l-2.9-7.5c1.1-0.4 28.4-11 68.4-16.3 37-5 92.1-6.2 144.6 16.4l-3.1 7.3c-50.8-21.8-104.3-20.6-140.2-15.8-39.1 5.2-66.5 15.8-66.8 15.9z"/>
	<path class="s3" d="m414.5 202.7v-152.9l2.9-0.9c71.1-22.2 141.9-22.2 210.4 0l2.7 0.9v152.7l-5.4-2c-71.2-26.9-140.2-26.9-205-0.1zm105.5-30.4q50.3 0 102.5 18.7v-135.3c-65.1-20.6-132.4-20.5-200 0v135.1q11.6-4.5 23.6-8 12-3.5 24.3-5.8 12.3-2.4 24.7-3.5 12.4-1.2 24.9-1.2z"/>
	<path class="s4" d="m622.7 252.5l1.1-25.4 35.9-71.5q0.4-0.8 0.9-1.4 0.5-0.7 1.1-1.3 0.6-0.6 1.3-1.1 0.7-0.5 1.4-0.9 0.9-0.5 2-0.7 1-0.3 2-0.4 1.1 0 2.1 0.1 1 0.1 2 0.5 1.2 0.4 2.2 1 1 0.7 1.9 1.5 0.8 0.9 1.4 1.9 0.7 1.1 1.1 2.2 0 0.3 0.1 0.5 0.1 0.3 0.1 0.5 0.1 0.3 0.1 0.5 0.1 0.3 0.1 0.6 0.1 0.7 0.1 1.5 0 0.8-0.2 1.5-0.1 0.8-0.3 1.5-0.3 0.7-0.6 1.4l-36 71.6z"/>
	<path class="s5" d="m668.9 150.3l-39 77.6-3-1.5 37.7-75q0.5-0.3 1-0.5 0.6-0.2 1.1-0.3 0.5-0.1 1.1-0.2 0.5-0.1 1.1-0.1z"/>
	<path class="s5" d="m679 159.1l-37.5 74.6-3-1.5 38.9-77.4q0.2 0.3 0.4 0.6 0.1 0.3 0.3 0.6 0.1 0.3 0.3 0.6 0.1 0.3 0.2 0.6 0.1 0.2 0.1 0.4 0.1 0.3 0.1 0.5 0.1 0.3 0.1 0.5 0.1 0.3 0.1 0.5z"/>
	<path class="s5" d="m675.3 152.5l-39.5 78.4-2.9-1.5 39.5-78.5q0.1 0 0.3 0.1 0.1 0 0.3 0.1 0.1 0.1 0.3 0.1 0.1 0.1 0.3 0.2 0.2 0.1 0.4 0.2 0.2 0.1 0.5 0.3 0.2 0.1 0.4 0.3 0.2 0.1 0.4 0.3z"/>
	<path class="s5" d="m627.2 248.2l-3.9 3.2 0.3-8.4c1.4 0.5 2.8 2.5 3.6 5.2z"/>
	<path class="s4" d="m235.7 340.1l-4.8-14.4 5.1-47.4q0-0.5 0.2-1 0.1-0.5 0.3-0.9 0.2-0.5 0.5-0.9 0.3-0.4 0.6-0.8 0.5-0.5 1-0.8 0.5-0.4 1-0.6 0.6-0.3 1.2-0.4 0.6-0.2 1.2-0.2 0.8 0 1.5 0.1 0.7 0.2 1.3 0.5 0.7 0.3 1.3 0.7 0.5 0.5 1 1 0.1 0.1 0.2 0.3 0.1 0.1 0.1 0.2 0.1 0.2 0.2 0.3 0.1 0.1 0.2 0.3 0.2 0.4 0.3 0.8 0.2 0.4 0.3 0.9 0 0.4 0.1 0.9 0 0.5-0.1 0.9l-5 47.5z"/>
	<path class="s5" d="m240 273.4l-5.5 51.5-2-0.2 5.3-49.8q0.3-0.2 0.5-0.5 0.3-0.2 0.5-0.4 0.3-0.1 0.6-0.3 0.3-0.2 0.6-0.3z"/>
	<path class="s5" d="m247.5 276.2l-5.3 49.5-2-0.2 5.5-51.4q0.2 0.2 0.3 0.3 0.2 0.1 0.3 0.2 0.2 0.2 0.3 0.3 0.1 0.2 0.2 0.3 0.1 0.1 0.2 0.2 0.1 0.2 0.2 0.3 0.1 0.1 0.1 0.2 0.1 0.2 0.2 0.3z"/>
	<path class="s5" d="m244 273.3l-5.5 52-2-0.2 5.5-52.1q0.1 0 0.2 0 0.1 0 0.2 0 0.1 0 0.2 0 0.1 0 0.2 0 0.2 0 0.3 0.1 0.2 0 0.3 0 0.2 0.1 0.3 0.1 0.2 0 0.3 0.1z"/>
	<path class="s5" d="m237.3 336.8l-1.5 2.6-1.6-4.8c0.8 0 2.1 0.8 3.1 2.2z"/>
	<g id="f2202155-5d0d-4949-a3af-453985752dd6">
		<path id="bb56e1bb-a377-463a-b777-e3f2ac15f40f-505" class="s6" d="m750.4 323.2c-1.1 1.9-2.9 3.3-5 3.9-2.1 0.6-4.4 0.3-6.3-0.8-1.9-1.1-3.3-2.9-3.9-5-0.6-2.2-0.3-4.4 0.8-6.3q0-0.1 0.1-0.1 0.1-0.2 0.2-0.3 0-0.2 0.1-0.3 0.1-0.2 0.2-0.3 0.2-0.1 0.3-0.3l-7-49.7-0.2-1.5-1.5-10.2-0.2-1.5 0.8 0.1 13.5 0.6 3.7 0.2 0.4 9.2 2.6 52.1q1 1 1.6 2.2 0.7 1.3 0.9 2.7 0.2 1.4-0.1 2.7-0.3 1.4-1 2.6z"/>
		<path id="a248d591-cba6-4901-9d10-c9b24d625163-506" class="s1" d="m729.7 262.9l17.2-1.6q0.7 0 1.3-0.3 0.5-0.4 1-0.9 0.4-0.5 0.6-1.1 0.2-0.7 0.2-1.3l-3.2-35.8c-0.3-3.4-2-6.6-4.7-8.8-2.6-2.2-6-3.3-9.5-3-3.4 0.3-6.6 2-8.8 4.6-2.2 2.7-3.3 6.1-3 9.5q0 0.4 0.1 0.8l5.1 35q0.1 0.6 0.4 1.2 0.3 0.5 0.8 0.9 0.4 0.4 1 0.6 0.6 0.2 1.2 0.2 0 0 0.1 0 0 0 0 0 0.1 0 0.1 0 0.1 0 0.1 0z"/>
		<path id="f743e301-5bba-4392-b658-4efdfb4065cc-507" class="s1" d="m742.7 234c0.9-2.4 1.4-5 1.4-7.6 0-2.6-0.3-5.2-1.1-7.6-0.8-2.5-2-4.8-3.6-6.9-1.5-2.1-3.4-3.9-5.5-5.4-6.5-4.5-15.3-6-24.9 5.3q-4.3 5.2-8 10.9-3.7 5.6-6.7 11.6-3.1 6.1-5.4 12.4-2.4 6.3-4 12.9l39.1 6.4c0 0 13.3-16.3 18.7-32z"/>
		<path id="eac80286-6d9c-481f-b372-04b3b845d333-508" class="s6" d="m679.5 490.2h-11.2l-5.3-43h16.5z"/>
		<path id="e474a022-de70-4f17-bf9b-ca694d09b1b4-509" class="s7" d="m646.8 500.6h35.1v-13.6h-21.5c-1.8 0-3.6 0.4-5.2 1-1.7 0.7-3.2 1.7-4.4 3-1.3 1.2-2.3 2.7-3 4.4-0.6 1.6-1 3.4-1 5.2z"/>
		<path id="a9ae19c7-51aa-4dd0-9022-ef91b49440e0-510" class="s6" d="m771.2 480.5l-10.6 3.5-18.6-39.2 15.7-5.2z"/>
		<path id="bdf88be3-aecd-443e-97f8-a32ede953949-511" class="s7" d="m743.4 500.6l33.3-11-4.3-12.9-20.4 6.8c-1.7 0.5-3.2 1.4-4.6 2.6-1.3 1.1-2.4 2.5-3.2 4.1-0.8 1.6-1.3 3.3-1.5 5.1-0.1 1.8 0.1 3.6 0.7 5.3z"/>
		<path id="e601451a-496c-4b1c-9fe2-c3a71e9d5111" fill-rule="evenodd" class="s6" d="m718.2 195.2c-12.4 0-22.4-10-22.4-22.3 0-12.4 10-22.4 22.4-22.4 12.3 0 22.3 10 22.3 22.4 0 12.3-10 22.3-22.3 22.3z"/>
		<path id="fd5880a1-dddd-4cd5-886d-5f97a9f21c4e-512" class="s7" d="m698.6 478.2l10.4-68.3c0.1-0.8 0.4-1.4 1-1.9 0.5-0.5 1.2-0.8 2-0.8 0.7-0.1 1.4 0.2 2 0.6 0.6 0.4 1 1.1 1.2 1.8l15.8 65.1q0.2 0.8 0.6 1.4 0.5 0.7 1.1 1.1 0.6 0.4 1.4 0.6 0.8 0.1 1.5 0l43.5-7q0.9-0.1 1.6-0.6 0.8-0.5 1.2-1.2 0.5-0.8 0.6-1.7 0.1-0.8-0.1-1.7l-56.7-187q-0.1-0.2-0.1-0.4-0.1-0.2-0.1-0.4 0-0.3 0-0.5 0.1-0.2 0.1-0.4l1.9-8.2q0.1-0.6 0.1-1.3-0.1-0.7-0.4-1.3-0.3-0.6-0.7-1.1-0.5-0.5-1.1-0.8c-7.8-4-27.3-12.1-42.1-3.2q-0.3 0.2-0.6 0.5-0.4 0.3-0.6 0.7-0.2 0.3-0.4 0.7-0.2 0.4-0.3 0.8l-44.3 208.3q-0.2 0.8 0 1.7 0.2 0.9 0.7 1.6 0.5 0.7 1.3 1.1 0.8 0.4 1.7 0.5l53.4 4.8q0.2 0 0.4 0 0.7 0 1.4-0.2 0.7-0.3 1.2-0.8 0.6-0.5 0.9-1.1 0.4-0.6 0.5-1.4z"/>
		<path id="acdc6559-e36c-4b0b-aac1-c1a10856fa7d-513" class="s7" d="m733 157.1q-0.6-0.4-1.2-0.8-0.6-0.5-1.2-1-0.5-0.4-1.1-1-0.5-0.5-0.9-1.1-0.5-0.5-0.8-1.2-0.3-0.7-0.4-1.4-0.1-0.8 0-1.5 0-0.7 0.3-1.4c1.1-2.5 4.5-3.3 7.1-2.4 2.6 0.8 4.6 2.8 6.5 4.8 1.7 1.7 3.4 3.5 4.2 5.8 0.8 2.3 0.4 5.2-1.6 6.6-2 1.3-4.7 0.8-6.6-0.7q-0.7-0.6-1.3-1.2-0.5-0.7-1.1-1.4-0.5-0.7-0.9-1.5-0.5-0.8-0.8-1.6z"/>
		<path id="a8902353-3630-4aaa-9386-a524a4077d2f-514" class="s7" d="m740.6 150.7c0.1-6.3 7.3-10.8 13.5-9.7 6.2 1.1 10.9 6.4 13.3 12.2 5 12.4 1.3 26.4-3.6 38.8-4.9 12.4-10.9 25-10.1 38.2 0.2 3.6 0.9 7.1 2.1 10.5 1.2 3.4 2.8 6.6 4.8 9.6 2.1 2.9 4.5 5.6 7.2 7.9 2.8 2.3 5.8 4.2 9.1 5.7-7 3.2-15.4-0.1-21.3-5-13-11-18.1-30.6-11.9-46.5 3-7.8 8.3-14.5 12.4-21.9 4.2-7.3 7.2-15.9 5.1-24-2.1-8.2-11.3-14.8-19.1-11.6z"/>
		<path id="b05157c8-b93b-43b3-a4ba-0cfdfe0a562e-515" class="s7" d="m716.8 182.8c2-3.3 3.9-7.6 0.4-10.5q-0.6-0.5-1.2-0.8-0.7-0.3-1.4-0.5-0.7-0.2-1.5-0.2-0.7-0.1-1.4 0c-4 0.5-8.4 0.7-12.3-0.7q-1.1-0.4-2.1-1-1-0.6-1.8-1.4-0.9-0.7-1.6-1.7-0.7-0.9-1.2-1.9c-2-4.8 0.5-10.6 4.7-13.6q2-1.3 4.2-2 2.2-0.7 4.6-0.8 2.3 0 4.5 0.6 2.3 0.7 4.3 1.9c5.4-2.4 12-1.3 16.9 2 4.9 3.3 8.3 8.6 10.2 14.2q0.6 1.8 1 3.7 0.3 1.9 0.4 3.8 0.1 1.9 0 3.9-0.2 1.9-0.6 3.7-0.7 2.7-2 5-1.3 2.4-3.1 4.4-1.8 2-4.1 3.5-2.2 1.6-4.7 2.5-1 0.4-2.1 0.5-1 0.1-2.1 0-1-0.2-2-0.6-1-0.4-1.8-1.1-0.7-0.6-1.3-1.3-0.6-0.7-1.1-1.4-0.5-0.8-0.9-1.6-0.4-0.8-0.8-1.6c-0.7-2.5-1.1-5.3-0.1-7z"/>
		<path id="fb245157-e4e6-4551-ad6a-dca5f4b0f94b-516" class="s6" d="m650.6 202.7q0 0.2 0 0.4 0.1 0.2 0.1 0.4 0 0.1 0 0.3 0.1 0.2 0.1 0.4l39 22.5 9.5-5.4 10.2 13.2-15.9 11.4q-1 0.6-2.1 1-1.1 0.3-2.3 0.3-1.2 0-2.3-0.4-1.1-0.4-2-1.2l-40.3-31.8c-3.8 1.4-7.9 0.4-10.6-2.6-2.6-3-3-7.3-1.2-10.8 1.9-3.5 5.8-5.5 9.7-5 3.9 0.5 7.1 3.4 8.1 7.3z"/>
		<path id="b7c0657c-f78e-4619-b8ae-65b0c7791644-517" class="s1" d="m691.2 227.8l12.6 16.4q0.5 0.7 1.3 1.1 0.8 0.4 1.7 0.5 0.9 0 1.7-0.3 0.9-0.3 1.5-1l14.3-14.8c2.4-1.8 4-4.5 4.5-7.5 0.4-3-0.4-6-2.2-8.5-1.8-2.4-4.5-4-7.5-4.4-2.9-0.5-6 0.3-8.4 2.1q-0.2 0.2-0.4 0.3l-17.9 10q-0.8 0.5-1.3 1.2-0.5 0.7-0.7 1.6-0.2 0.9 0 1.7 0.2 0.9 0.8 1.6z"/>
	</g>
	<path fill-rule="evenodd" class="s8" d="m208.6 488.8h12.1l5.7-46.8h-17.8v46.8z"/>
	<path class="s7" d="m205.5 484.9l23.8-0.1c2 0 4 0.4 5.9 1.2 1.8 0.8 3.5 1.9 4.9 3.3 1.4 1.4 2.5 3.1 3.3 4.9 0.8 1.9 1.2 3.9 1.2 5.9v0.5h-39.1z"/>
	<path fill-rule="evenodd" class="s8" d="m114.2 483.6l11.9 1.8 12.7-45.4-15.7-2.7-8.9 46.3z"/>
	<path class="s7" d="m111.7 479.2l23.6 3.6c2 0.3 3.9 0.9 5.6 2 1.7 1 3.2 2.4 4.4 4 1.2 1.6 2 3.4 2.5 5.3 0.5 2 0.6 4 0.3 6l-0.1 0.5-38.7-5.9z"/>
	<path class="s8" d="m151.5 257.1l13.5 3.5-0.9 21.8-0.1 39.8c2.7 1.8 4 5.2 3.2 8.4-0.8 3.2-3.5 5.6-6.7 6-3.3 0.4-6.5-1.2-8.1-4.1-1.5-3-1.1-6.5 1.1-9l-4.2-39.9z"/>
	<path class="s1" d="m149.2 232.1q0-1.6 0.5-3.1 0.5-1.5 1.5-2.8 0.9-1.3 2.1-2.3 1.2-1 2.7-1.6 1.4-0.6 2.8-0.8 1.5-0.2 3 0 1.5 0.3 2.8 0.9 1.4 0.7 2.5 1.7 0.8 0.7 1.4 1.6 0.7 0.8 1.1 1.8 0.4 1 0.6 2 0.2 1.1 0.2 2.2c0 12.7-2.9 31.4-2.9 31.6l-0.1 0.3-19.6 6.6z"/>
	<path class="s7" d="m184.4 268.4l30.1-7.8 13.9 46.8 0.5 174.6-23-0.2-9.7-141.2-61.3 130.5-24.7-3 53.9-139.9c0 0-3-24.7 6.4-37.1l-1.9-12.8z"/>
	<path class="s1" d="m164.1 280q-0.3-0.4-0.6-0.8-0.2-0.4-0.3-0.9-0.1-0.5-0.2-1 0-0.5 0.1-1l-13.7-41.2q-0.5-1.4-0.6-2.9 0-1.6 0.4-3 0.4-1.5 1.1-2.8 0.8-1.3 2-2.3l5.9-5.4 4.1-16.2 23.2 5.7-1.9 7.6 10.5-1.9 22.1 49.3-46.3 18.5h-2.2q-0.6 0-1.1-0.1-0.5-0.1-0.9-0.3-0.5-0.2-0.9-0.6-0.4-0.3-0.7-0.7z"/>
	<path class="s8" d="m196.3 245.3l13.3-4.3 10.9 19 21.1 33.6c3.3 0.1 6.2 2.3 7.2 5.4 1.1 3.2 0.1 6.6-2.5 8.7-2.5 2.1-6.1 2.4-9 0.8-2.8-1.7-4.4-4.9-3.9-8.1l-24.8-31.5z"/>
	<path class="s1" d="m181 225.4q-0.8-1.4-1.2-2.9-0.4-1.6-0.3-3.1 0-1.6 0.5-3.1 0.6-1.5 1.5-2.8 0.8-1.3 2-2.2 1.1-1 2.5-1.6 1.4-0.6 2.9-0.7 1.4-0.2 2.9 0.1 1.1 0.1 2.1 0.5 1 0.4 1.8 1 0.9 0.6 1.7 1.4 0.7 0.8 1.2 1.7c6.9 10.8 14.4 28.1 14.5 28.3l0.1 0.2-13.1 16.2z"/>
	<path fill-rule="evenodd" class="s8" d="m179.4 199.5c-10.2 0-18.4-8.2-18.4-18.4 0-10.2 8.2-18.5 18.4-18.5 10.2 0 18.5 8.3 18.5 18.5 0 10.2-8.3 18.4-18.5 18.4z"/>
	<path fill-rule="evenodd" class="s7" d="m146.8 173.3c-9.8 0-17.7-8-17.7-17.8 0-9.8 7.9-17.8 17.7-17.8 9.9 0 17.8 8 17.8 17.8 0 9.8-7.9 17.8-17.8 17.8z"/>
	<path class="s7" d="m131.5 170.2c2.3 1.7 5 2.8 7.8 3.2 2.8 0.4 5.7 0.2 8.3-0.8 2.7-0.9 5.2-2.4 7.1-4.5 2-2 3.4-4.5 4.2-7.2-0.6 4.9-3.2 9.4-7.3 12.2-4 2.9-9.1 4-13.9 3-4.9-1.1-9.1-4.1-11.6-8.3-2.6-4.3-3.2-9.4-1.8-14.2q-0.3 2.4 0 4.7 0.4 2.4 1.3 4.6 1 2.2 2.5 4.1 1.5 1.8 3.4 3.2z"/>
	<path class="s7" d="m201.6 170.2c-3.1-5.5-4.3-7.8-8.3-11.2-3.5-3-7.9-3.9-11.4-1-8.5-3.7-18.4-1.4-24.4 5.7-5.9 7.1-6.5 17.3-1.4 25.1 5.1 7.7 14.6 11.2 23.5 8.6 8.9-2.7 15-10.9 15-20.2q0-0.3 0-0.5 0-0.3 0-0.6 0-0.3-0.1-0.6 0-0.3 0-0.6c3-0.5 4.1-4.2 7.1-4.7z"/>
	<path class="s1" d="m382 500.7h-381q-0.4 0-0.7-0.2-0.3-0.3-0.3-0.8 0-0.4 0.3-0.7 0.3-0.2 0.7-0.3h381q0.4 0.1 0.7 0.3 0.3 0.3 0.3 0.7 0 0.5-0.3 0.8-0.3 0.2-0.7 0.2z"/>
	<path class="s1" d="m891 500.7h-381q-0.4 0-0.7-0.2-0.3-0.3-0.3-0.8 0-0.4 0.3-0.7 0.3-0.2 0.7-0.3h381q0.4 0.1 0.7 0.3 0.3 0.3 0.3 0.7 0 0.5-0.3 0.8-0.3 0.2-0.7 0.2z"/>
	<path fill-rule="evenodd" class="s1" d="m392.3 19.7h2v303.1h-2z"/>
</svg>